<svg version="1.2" xmlns="http://www.w3.org/2000/svg" viewBox="0 0 16 16" width="16" height="16">
	<title>three-dots-vertical-svg</title>
	<style>
		.s0 { fill: #ffffff } 
	</style>
	<path id="Layer" class="s0" d="m9.5 13c0 0.4-0.2 0.8-0.4 1.1-0.3 0.2-0.7 0.4-1.1 0.4-0.4 0-0.8-0.2-1.1-0.4-0.2-0.3-0.4-0.7-0.4-1.1 0-0.4 0.2-0.8 0.4-1.1 0.3-0.2 0.7-0.4 1.1-0.4 0.4 0 0.8 0.2 1.1 0.4 0.2 0.3 0.4 0.7 0.4 1.1zm0-5c0 0.4-0.2 0.8-0.4 1.1-0.3 0.2-0.7 0.4-1.1 0.4-0.4 0-0.8-0.2-1.1-0.4-0.2-0.3-0.4-0.7-0.4-1.1 0-0.4 0.2-0.8 0.4-1.1 0.3-0.2 0.7-0.4 1.1-0.4 0.4 0 0.8 0.2 1.1 0.4 0.2 0.3 0.4 0.7 0.4 1.1zm0-5c0 0.4-0.2 0.8-0.4 1.1-0.3 0.2-0.7 0.4-1.1 0.4-0.4 0-0.8-0.2-1.1-0.4-0.2-0.3-0.4-0.7-0.4-1.1 0-0.4 0.2-0.8 0.4-1.1 0.3-0.2 0.7-0.4 1.1-0.4 0.4 0 0.8 0.2 1.1 0.4 0.2 0.3 0.4 0.7 0.4 1.1z"/>
</svg>